<svg width="22" height="22" viewBox="0 0 22 22" fill="none" xmlns="http://www.w3.org/2000/svg">
<path fill-rule="evenodd" clip-rule="evenodd" d="M3.00002 11C3.00002 6.30558 6.8056 2.5 11.5 2.5C16.1944 2.5 20 6.30558 20 11C20 15.6944 16.1944 19.5 11.5 19.5C9.8278 19.5 8.27127 19.0182 6.95798 18.1861C6.71357 18.0313 6.41408 17.9899 6.13684 18.0726L3.25769 18.9319L4.34173 16.3953C4.46986 16.0955 4.44379 15.7521 4.27187 15.4751C3.4657 14.176 3.00002 12.6439 3.00002 11ZM11.5 0.5C5.70103 0.5 1.00002 5.20101 1.00002 11C1.00002 12.8381 1.47316 14.5683 2.30465 16.0727L0.580471 20.107C0.428049 20.4637 0.495611 20.8763 0.753821 21.1657C1.01203 21.4552 1.41432 21.5692 1.78599 21.4582L6.28541 20.1155C7.82245 20.9965 9.6037 21.5 11.5 21.5C17.299 21.5 22 16.799 22 11C22 5.20101 17.299 0.5 11.5 0.5ZM13.7925 13.1824L12.4783 14.1081C11.8628 13.7575 11.1823 13.2681 10.4997 12.5855C9.7901 11.8759 9.26402 11.1433 8.87612 10.4713L9.7113 9.7624C10.0697 9.4582 10.1678 8.94533 9.947 8.53028L8.88284 6.53028C8.73954 6.26097 8.48116 6.0718 8.18115 6.01654C7.88113 5.96129 7.57231 6.046 7.34247 6.24659L7.02696 6.52195C6.26823 7.18414 5.8195 8.2723 6.19141 9.3741C6.57698 10.5163 7.39983 12.314 9.08552 13.9997C10.8991 15.8133 12.7413 16.5275 13.8186 16.8049C14.6866 17.0283 15.508 16.7288 16.0868 16.2572L16.6783 15.7752C16.9313 15.5691 17.0678 15.2524 17.044 14.9269C17.0201 14.6014 16.8389 14.308 16.5585 14.1409L14.8802 13.1409C14.5412 12.939 14.1152 12.9552 13.7925 13.1824Z" fill="black"/>
</svg>
